<mxfile host="app.diagrams.net" modified="2024-06-01T13:23:41.184Z" agent="Mozilla/5.0 (Macintosh; Intel Mac OS X 10_15_7) AppleWebKit/537.36 (KHTML, like Gecko) Chrome/125.0.0.0 Safari/537.36" version="24.4.13" etag="nceWyf4cu372HKdku7VY" type="github">
  <diagram name="Page-1" id="ehr6L1-xM0cSiayTjf1R">
    <mxGraphModel>
      <root>
        <mxCell id="0" />
        <mxCell id="1" parent="0" />
      </root>
    </mxGraphModel>
  </diagram>
</mxfile>
